<svg width="79" height="79" viewBox="0 0 79 79" fill="none" xmlns="http://www.w3.org/2000/svg">
<path d="M39.5 78C60.763 78 78 60.763 78 39.5C78 18.237 60.763 1 39.5 1C18.237 1 1 18.237 1 39.5C1 60.763 18.237 78 39.5 78Z" stroke="white" stroke-width="2" stroke-miterlimit="10" stroke-linejoin="round"/>
<path d="M65.1666 67.7333C65.1666 53.5576 53.6756 42.0667 39.4999 42.0667C25.3242 42.0667 13.8333 53.5576 13.8333 67.7333" stroke="white" stroke-width="2" stroke-miterlimit="10" stroke-linejoin="round"/>
<path d="M39.5001 42.0666C48.0053 42.0666 54.9001 35.1718 54.9001 26.6666C54.9001 18.1614 48.0053 11.2666 39.5001 11.2666C30.9949 11.2666 24.1001 18.1614 24.1001 26.6666C24.1001 35.1718 30.9949 42.0666 39.5001 42.0666Z" stroke="white" stroke-width="2" stroke-miterlimit="10" stroke-linejoin="round"/>
</svg>
