<svg width="30" height="30" viewBox="0 0 30 30" fill="none" xmlns="http://www.w3.org/2000/svg">
<path d="M15.3589 6.44264e-06C13.2772 -0.000528875 11.2203 0.463404 9.33095 1.35961C7.44159 2.25582 5.765 3.56285 4.41751 5.19001L2.42817 3.37501C2.21721 3.18527 1.95749 3.06177 1.67998 3.01921C1.40247 2.97666 1.11888 3.01685 0.863024 3.13501C0.606384 3.25331 0.388464 3.445 0.23539 3.68711C0.0823168 3.92922 0.000587093 4.21146 0 4.50001V10.5C0 10.8978 0.154111 11.2794 0.42843 11.5607C0.70275 11.842 1.07481 12 1.46275 12H8.04514C8.3398 11.9991 8.62733 11.907 8.87006 11.7357C9.1128 11.5644 9.29943 11.3219 9.4055 11.04C9.51334 10.7543 9.5333 10.4416 9.4627 10.144C9.39209 9.84633 9.23431 9.57797 9.01056 9.375L6.59702 7.17001C7.67667 5.86284 9.02113 4.81264 10.5368 4.09248C12.0525 3.37233 13.703 2.99952 15.3735 3.00001C17.5188 2.99965 19.6228 3.60401 21.4557 4.74702C23.2886 5.89004 24.7798 7.52774 25.7664 9.48113C26.753 11.4345 27.197 13.6284 27.0499 15.8231C26.9028 18.0177 26.1701 20.1287 24.9321 21.9252C23.6941 23.7218 21.9983 25.1348 20.0301 26.0098C18.0619 26.8849 15.897 27.1882 13.772 26.8868C11.6471 26.5854 9.64376 25.6908 7.98109 24.3007C6.31841 22.9107 5.06034 21.0787 4.34438 19.005C4.21635 18.6291 3.94794 18.3207 3.59818 18.1477C3.24843 17.9747 2.84598 17.9512 2.47937 18.0825C2.11276 18.2138 1.81202 18.489 1.64331 18.8477C1.47461 19.2064 1.45175 19.6191 1.57977 19.995C2.47304 22.5888 4.04466 24.8808 6.12274 26.6202C8.20082 28.3597 10.7053 29.4797 13.3624 29.8577C16.0194 30.2357 18.7267 29.8572 21.188 28.7635C23.6494 27.6699 25.7701 25.9032 27.3182 23.6567C28.8663 21.4103 29.7822 18.7705 29.9657 16.0262C30.1492 13.2818 29.5933 10.5385 28.3587 8.0964C27.1241 5.65426 25.2584 3.60728 22.9657 2.17933C20.6729 0.751384 18.0414 -0.00254265 15.3589 6.44264e-06Z" fill="black"/>
<path d="M20.8442 21C20.5277 21 20.2198 20.8947 19.9666 20.7L14.1156 16.2C13.9339 16.0603 13.7864 15.8791 13.6849 15.6708C13.5833 15.4625 13.5305 15.2329 13.5305 15V9C13.5305 8.60217 13.6846 8.22064 13.9589 7.93934C14.2332 7.65804 14.6053 7.5 14.9932 7.5C15.3812 7.5 15.7532 7.65804 16.0275 7.93934C16.3019 8.22064 16.456 8.60217 16.456 9V14.25L21.7219 18.3C21.8755 18.4182 22.005 18.5663 22.1029 18.7358C22.2008 18.9053 22.2651 19.0929 22.2923 19.2879C22.3194 19.4829 22.3089 19.6814 22.2612 19.8723C22.2135 20.0631 22.1297 20.2424 22.0144 20.4C21.8782 20.5863 21.7015 20.7375 21.4984 20.8416C21.2953 20.9458 21.0713 21 20.8442 21Z" fill="black"/>
</svg>
