<svg width="56" height="62" viewBox="0 0 56 62" fill="none" xmlns="http://www.w3.org/2000/svg">
<path d="M43.5556 6.2V24.8L37.3333 18.6L31.1111 24.8V6.2H18.6667V55.8H49.7778V6.2H43.5556ZM0 15.5V9.3H6.22222V6.2C6.22222 4.55566 6.87778 2.97866 8.04467 1.81594C9.21156 0.653212 10.7942 0 12.4444 0H49.7778C53.0444 0 56 2.945 56 6.2V55.8C56 59.055 53.0444 62 49.7778 62H12.4444C9.17778 62 6.22222 59.055 6.22222 55.8V52.7H0V46.5H6.22222V34.1H0V27.9H6.22222V15.5H0ZM6.22222 9.3V15.5H12.4444V9.3H6.22222ZM6.22222 52.7H12.4444V46.5H6.22222V52.7ZM6.22222 34.1H12.4444V27.9H6.22222V34.1Z" fill="white"/>
</svg>
