<svg width="18" height="22" viewBox="0 0 18 22" fill="none" xmlns="http://www.w3.org/2000/svg">
<path fill-rule="evenodd" clip-rule="evenodd" d="M15 3H16C17.1046 3 18 3.89543 18 5V20C18 21.1046 17.1046 22 16 22H2C0.89543 22 0 21.1046 0 20V5C0 3.89543 0.89543 3 2 3H3C3 1.89543 3.89543 1 5 1H5.99592C6.7482 0.362975 7.83914 0 9 0C10.1609 0 11.2518 0.362975 12.0041 1H13C14.1046 1 15 1.89543 15 3ZM3.26756 5H2V20H16V5H14.7324C14.3866 5.5978 13.7403 6 13 6H5C4.25972 6 3.61337 5.5978 3.26756 5ZM5 15V13H11V15H5ZM5 11V9H13V11H5ZM7.15665 2.65538L6.85762 3H6.40135H5V4H13V3H11.1424L10.8434 2.65538C10.5148 2.27674 9.81059 2 9 2C8.18941 2 7.48519 2.27674 7.15665 2.65538Z" fill="black"/>
</svg>
